<svg width="191" height="58" viewBox="0 0 191 58" fill="none" xmlns="http://www.w3.org/2000/svg">
<g filter="url(#filter0_d_9_390)">
<g clip-path="url(#clip0_9_390)">
<path d="M44.9048 29.1243C43.0898 36.127 36.6988 41.3013 29.0943 41.3013C20.0754 41.3013 12.7645 34.026 12.7645 25.052C12.7645 16.0779 20.0754 8.80265 29.0943 8.80265C32.1666 8.80265 35.0409 9.6489 37.4966 11.1176L41.8432 3.56884C38.1087 1.36841 33.7505 0.104797 29.0952 0.104797C15.2488 0.104797 4.02405 11.2739 4.02405 25.052C4.02405 38.8291 15.2488 49.9991 29.0952 49.9991C42.9407 49.9991 54.1646 38.8291 54.1646 25.052C54.1646 24.8202 54.1601 24.5893 54.1539 24.3576C51.5099 28.1688 46.6725 28.9609 44.9048 29.1243Z" fill="url(#paint0_linear_9_390)"/>
<path d="M54.1789 25.0324C54.1789 24.8007 54.1753 24.5698 54.1691 24.3389C51.526 28.1493 46.6877 28.9413 44.9218 29.1038C44.3998 31.1151 43.5003 32.9728 42.3054 34.6032C42.0315 38.5698 41.538 42.7194 40.6555 43.8374C39.5419 45.2466 36.8756 47.6451 34.9829 49.2896C45.9953 46.6585 54.1789 36.7974 54.1789 25.0324Z" fill="url(#paint1_linear_9_390)"/>
<path d="M44.9227 29.1038C44.9227 29.1038 48.1039 29.0133 51.2859 27.0615C52.7271 26.1779 53.424 25.4027 54.1539 24.3513C54.1539 24.3513 54.0406 31.1285 48.4572 33.8519C47.8094 34.1672 46.3611 34.5437 45.981 34.6404L44.9227 29.1038Z" fill="url(#paint2_linear_9_390)"/>
<path d="M42.5517 42.9876C43.4789 41.621 43.9634 40.2632 44.2079 39.1062C44.3998 38.2075 44.4667 36.7281 44.3935 35.588C44.3123 34.375 44.0473 33.7161 43.9518 33.3058C43.3102 30.5122 41.5951 29.444 40.088 29.0621C38.6808 28.706 37.5136 28.881 34.7937 29.2433C33.7265 29.3853 32.1105 29.6011 30.0733 29.9022C28.1503 30.1863 26.8189 30.3985 25.6669 30.4767C24.2472 30.5753 23.2228 30.5557 22.1734 30.3044C20.7305 29.9581 19.6204 29.2717 19.2287 28.8952C17.3092 27.0473 17.1468 23.9615 17.1531 22.8764C17.1531 22.8746 17.1504 22.8719 17.1504 22.8719C16.4678 27.5632 17.5448 30.9411 19.9149 33.035C20.5502 33.3893 21.969 34.0562 24.066 34.3297C25.6571 34.5357 27.3222 34.3608 29.0596 34.0491C33.5329 33.2481 38.0508 31.5121 40.4217 34.9841C40.4217 34.9841 41.5577 36.3001 41.4149 38.9685C41.4006 39.2385 41.3105 40.1815 41.1231 40.978C40.917 41.8536 40.5939 42.6048 40.1727 43.349C39.6266 44.3151 38.7771 45.4393 37.4672 46.4925C37.4672 46.4925 34.2869 49.0277 31.592 49.8357C31.634 49.8322 31.3547 49.8988 31.3984 49.897C32.819 49.4539 34.5376 48.7124 36.1626 47.8733C36.872 47.5065 37.6037 47.0998 38.256 46.7136C38.6156 46.5004 38.9609 46.2847 39.2867 46.0662C41.0455 44.8905 42.2448 43.4218 42.5517 42.9876Z" fill="url(#paint3_linear_9_390)"/>
<path d="M32.2399 49.8046C33.2643 49.6901 34.3146 49.469 35.0391 49.2887C41.2213 47.7525 43.8938 43.9341 45.0663 41.2045C45.3867 40.4612 45.7998 39.2305 46.0345 37.9411C46.2933 36.5265 46.3576 35.056 46.3602 34.43C46.3638 33.2809 46.2451 32.274 46.0515 31.4002C45.6758 29.6979 44.7505 27.9397 43.66 26.922C42.4964 25.836 41.265 25.5155 40.8286 25.3858C36.2697 24.2394 32.1158 25.4435 26.4209 26.4825C19.483 27.747 17.1995 22.9696 17.1558 22.8781C17.1504 23.9633 17.3119 27.049 19.2313 28.8969C19.6231 29.2734 20.7331 29.9599 22.1761 30.3062C23.2255 30.5584 24.2499 30.5779 25.6696 30.4784C26.8216 30.3994 27.672 30.4225 29.595 30.1375C31.6331 29.8373 33.7283 29.3862 34.7955 29.2441C37.5154 28.8818 38.8851 28.9129 40.2923 29.269C41.7986 29.6508 43.4271 30.9411 43.9536 33.3067C44.0464 33.7178 44.3141 34.3758 44.3953 35.5888C44.4685 36.729 44.4016 38.2084 44.2097 39.107C43.9643 40.2632 43.4807 41.6218 42.5535 42.9884C42.2474 43.4227 41.0472 44.8914 39.2902 46.0671C37.0656 47.5598 33.8059 49.1156 31.3859 49.8961C31.6456 49.8828 31.9686 49.8339 32.2399 49.8046Z" fill="url(#paint4_linear_9_390)"/>
<path d="M40.1745 43.349C40.5957 42.6048 40.9187 41.8536 41.1248 40.978C41.3113 40.1824 41.4024 39.2384 41.4166 38.9685C41.5594 36.3001 40.4235 34.9841 40.4235 34.9841C38.0525 31.5121 33.5346 33.2472 29.0613 34.049C27.3239 34.3607 25.6588 34.5357 24.0678 34.3296C21.9699 34.0561 20.552 33.3893 19.9166 33.035C20.2245 33.3076 20.552 33.5606 20.9036 33.7897C23.9527 35.7771 31.2743 34.4611 31.2743 34.4611C32.1158 34.3243 32.9359 34.2124 33.6096 34.129C34.0629 34.0721 34.6625 34.0144 35.2568 33.9958C35.9109 33.9762 36.5507 34.0002 36.7925 34.0384C39.7176 34.4939 40.3824 36.7361 40.3824 36.7361C40.4529 36.9883 40.6118 37.4927 40.6448 38.0423C40.6965 38.8833 40.5957 39.8405 40.5332 40.249C39.5383 46.7633 31.9007 49.6475 31.9007 49.6475C31.9418 49.6466 31.3439 49.8952 31.385 49.8943C34.7268 48.8767 37.4698 46.4924 37.4698 46.4924C38.7789 45.4393 39.6284 44.3151 40.1745 43.349Z" fill="#31BEC3"/>
<path d="M5.43488 25.8094C5.40454 16.521 10.2134 8.47941 18.7477 4.06788C22.9595 1.88964 27.9129 0.629584 33.1036 0.629584C33.5953 0.629584 34.2146 0.699735 34.6991 0.721935C32.893 0.310796 31.0004 0 29.0703 0C15.2238 0 4 11.1691 4 24.9472C4 34.1512 9.0087 42.1892 16.4606 46.5129C9.72792 41.874 5.46076 34.1316 5.43488 25.8094Z" fill="url(#paint5_linear_9_390)"/>
<path d="M42.0609 13.6013C42.0609 13.6013 41.1186 14.5239 40.7831 15.1988C40.7831 15.1988 40.726 15.2814 40.8268 15.3293C40.9276 15.3773 41.273 15.5123 41.6852 15.57C41.6852 15.57 41.7771 15.5957 41.7861 15.4874C41.7959 15.3782 41.8182 14.1989 42.0609 13.6013Z" fill="url(#paint6_linear_9_390)"/>
<path d="M46.1639 11.8378C46.1639 11.8378 47.4855 11.8067 48.2065 12.0367C48.2065 12.0367 48.3056 12.0536 48.2708 12.1592C48.236 12.264 48.0923 12.605 47.846 12.9398C47.846 12.9398 47.8005 13.0241 47.7157 12.954C47.6301 12.8838 46.7645 12.0793 46.1639 11.8378Z" fill="url(#paint7_linear_9_390)"/>
<path d="M43.6796 12.6316C43.6796 12.6316 43.6538 12.5979 43.6091 12.5917C43.5761 12.589 43.5288 12.6077 43.4949 12.6405C43.42 12.7151 42.6178 13.501 42.5294 15.2441C42.5258 15.3205 42.5232 15.3817 42.5223 15.4626C42.5223 15.4626 42.5 15.6668 42.757 15.665C43.0595 15.6615 44.0303 15.522 44.6728 15.3009C44.6728 15.3009 44.8093 15.2352 44.7424 15.0825C44.6773 14.9333 43.6796 12.6316 43.6796 12.6316Z" fill="url(#paint8_linear_9_390)"/>
<path d="M47.009 13.2816C46.5816 12.914 45.5634 12.1539 44.4078 12.2338C44.4078 12.2338 44.2882 12.2489 44.3614 12.4274C44.439 12.6201 45.2172 14.389 45.3894 14.8152C45.3894 14.8152 45.4358 14.9697 45.6544 14.8924C45.873 14.8152 46.9813 14.0258 47.2071 13.7088C47.2071 13.7088 47.3302 13.5818 47.2053 13.4663C47.1803 13.4432 47.1205 13.3767 47.009 13.2816Z" fill="url(#paint9_linear_9_390)"/>
<path d="M40.3575 16.093C40.3575 16.093 40.3985 15.9429 40.5288 15.9838C40.6591 16.0255 41.2427 16.2324 41.6255 16.2795C41.6255 16.2795 41.8254 16.2848 41.8503 16.4864C41.8727 16.6818 41.9423 17.4543 42.0565 17.9107C42.0565 17.9107 42.3599 18.9754 42.5874 19.5429C42.5874 19.5429 42.641 19.7258 42.4875 19.7871C42.3188 19.8536 41.0803 20.3758 40.6778 20.5543C40.6778 20.5543 40.4985 20.6448 40.4012 20.6546C40.2736 20.6679 40.2477 20.5365 40.2031 20.3793C40.2031 20.3793 39.5053 18.2544 40.3575 16.093Z" fill="url(#paint10_linear_9_390)"/>
<path d="M49.1301 12.3253C49.1301 12.3253 48.9909 12.2525 48.932 12.375C48.8731 12.4967 48.6232 13.0614 48.393 13.3704C48.393 13.3704 48.2591 13.5196 48.3903 13.6741C48.5179 13.8251 49.0328 14.4067 49.2862 14.8028C49.2862 14.8028 49.8555 15.7538 50.1116 16.3097C50.1116 16.3097 50.2098 16.4731 50.3597 16.4029C50.5248 16.3292 51.7553 15.792 52.164 15.6233C52.164 15.6233 52.3514 15.5558 52.4255 15.4927C52.5218 15.411 52.4442 15.3018 52.3612 15.1624C52.3612 15.1624 51.2931 13.1964 49.1301 12.3253Z" fill="url(#paint11_linear_9_390)"/>
<path d="M42.5954 16.7164C42.5901 16.6782 42.5669 16.5699 42.5794 16.4864C42.5892 16.4189 42.6722 16.3683 42.732 16.3683C42.8712 16.3683 44.0339 16.3594 44.8825 15.9882C44.8825 15.9882 45.0735 15.8932 45.1761 16.0823C45.2778 16.2724 45.7972 17.6257 46.0095 18.0563C46.0095 18.0563 46.0979 18.2553 45.8561 18.3396C45.8561 18.3396 44.1499 19.0278 43.5877 19.3191C43.5877 19.3191 43.3093 19.4905 43.2076 19.1779C43.2076 19.1779 42.707 17.6585 42.5954 16.7164Z" fill="url(#paint12_linear_9_390)"/>
<path d="M48.0548 14.4032C48.0307 14.373 47.9673 14.2824 47.8977 14.2327C47.8424 14.1927 47.7487 14.2167 47.7068 14.2611C47.6104 14.3605 46.8019 15.1917 45.9453 15.546C45.9453 15.546 45.7445 15.617 45.8114 15.8222C45.8784 16.0264 46.5039 17.3362 46.6699 17.7855C46.6699 17.7855 46.7538 17.9871 46.9813 17.8717C46.9813 17.8717 48.6607 17.1195 49.2612 16.9153C49.2612 16.9153 49.5753 16.8336 49.4201 16.5441C49.4201 16.5441 48.6616 15.1349 48.0548 14.4032Z" fill="url(#paint13_linear_9_390)"/>
<path d="M46.9545 25.0138C46.9545 25.0138 45.633 25.052 44.912 24.8273C44.912 24.8273 44.8111 24.8104 44.8468 24.7048C44.8816 24.6 45.0235 24.2572 45.2671 23.9215C45.2671 23.9215 45.3117 23.8381 45.3974 23.9073C45.4822 23.9748 46.354 24.7758 46.9545 25.0138Z" fill="url(#paint14_linear_9_390)"/>
<path d="M51.0735 23.2866C51.0735 23.2866 52.0123 22.3587 52.3425 21.6829C52.3425 21.6829 52.3987 21.5995 52.2978 21.5524C52.1979 21.5044 51.8499 21.3712 51.4385 21.3162C51.4385 21.3162 51.3457 21.2904 51.3377 21.3997C51.3288 21.5089 51.3127 22.6899 51.0735 23.2866Z" fill="url(#paint15_linear_9_390)"/>
<path d="M48.7794 24.5236C48.7794 24.5236 48.7847 24.5662 48.7589 24.6008C48.7392 24.6275 48.6928 24.6488 48.6455 24.6497C48.5384 24.6515 47.4141 24.6843 46.089 23.5406C46.031 23.4909 45.9837 23.45 45.9257 23.3958C45.9257 23.3958 45.7615 23.2698 45.9408 23.0877C46.1532 22.8719 46.926 22.2708 47.531 21.9609C47.531 21.9609 47.672 21.9085 47.7362 22.063C47.7987 22.2122 48.7794 24.5236 48.7794 24.5236Z" fill="url(#paint16_linear_9_390)"/>
<path d="M50.6113 21.682C50.581 22.2432 50.4275 23.5006 49.57 24.2758C49.57 24.2758 49.4772 24.3513 49.3977 24.1755C49.3121 23.9855 48.5679 22.2024 48.3769 21.785C48.3769 21.785 48.2975 21.6447 48.5045 21.5408C48.7115 21.4387 50.05 21.1883 50.4373 21.2451C50.4373 21.2451 50.614 21.2442 50.6122 21.4147C50.6122 21.4467 50.6194 21.5346 50.6113 21.682Z" fill="url(#paint17_linear_9_390)"/>
<path d="M43.9679 24.5147C43.9679 24.5147 44.1071 24.5884 44.1669 24.465C44.2257 24.3433 44.481 23.7813 44.7112 23.474C44.7112 23.474 44.8441 23.3257 44.7156 23.1703C44.5889 23.0185 44.0776 22.4333 43.8269 22.0364C43.8269 22.0364 43.2629 21.08 43.0095 20.525C43.0095 20.525 42.9131 20.3598 42.7623 20.4282C42.5972 20.5028 41.3613 21.0311 40.9535 21.1972C40.9535 21.1972 40.7644 21.2638 40.6903 21.3269C40.593 21.4085 40.6707 21.5178 40.7528 21.6581C40.7528 21.6581 41.812 23.6312 43.9679 24.5147Z" fill="url(#paint18_linear_9_390)"/>
<path d="M52.7726 20.8198C52.7726 20.8198 52.7289 20.9699 52.5986 20.9272C52.4692 20.8855 51.8865 20.6742 51.5037 20.6253C51.5037 20.6253 51.3029 20.6191 51.2806 20.4175C51.2592 20.2213 51.194 19.4487 51.0825 18.9932C51.0825 18.9932 50.7862 17.9258 50.5614 17.3575C50.5614 17.3575 50.5096 17.1737 50.664 17.1133C50.8335 17.0476 52.0748 16.5335 52.4781 16.3568C52.4781 16.3568 52.6584 16.268 52.7556 16.2582C52.8824 16.2458 52.9073 16.3772 52.9511 16.5344C52.9511 16.5344 53.6373 18.6629 52.7726 20.8198Z" fill="url(#paint19_linear_9_390)"/>
<path d="M45.0655 22.4759C45.0904 22.5061 45.152 22.5967 45.2225 22.6464C45.2778 22.6855 45.3715 22.6615 45.4126 22.6162C45.509 22.5176 46.3201 21.6883 47.1767 21.3357C47.1767 21.3357 47.3784 21.2647 47.3115 21.0596C47.2437 20.8553 46.6226 19.5438 46.4566 19.0953C46.4566 19.0953 46.3727 18.8937 46.1443 19.0083C46.1443 19.0083 44.4658 19.7578 43.8635 19.9611C43.8635 19.9611 43.5485 20.041 43.7046 20.3323C43.7046 20.3323 44.4587 21.7433 45.0655 22.4759Z" fill="url(#paint20_linear_9_390)"/>
<path d="M50.5212 20.1538C50.5257 20.192 50.548 20.2994 50.5364 20.3838C50.5257 20.4522 50.4445 20.5019 50.382 20.5019C50.2446 20.501 49.081 20.5081 48.2315 20.8784C48.2315 20.8784 48.0414 20.9716 47.9388 20.7834C47.8371 20.5934 47.3204 19.2383 47.1089 18.8085C47.1089 18.8085 47.0197 18.6087 47.2624 18.5243C47.2624 18.5243 48.9686 17.8397 49.5325 17.5493C49.5325 17.5493 49.81 17.3788 49.9118 17.6923C49.9118 17.6923 50.4106 19.2117 50.5212 20.1538Z" fill="url(#paint21_linear_9_390)"/>
<path d="M81.1686 12.4692C80.4967 11.0635 79.524 9.9739 78.2498 9.20135C76.9755 8.42969 75.4933 8.04341 73.8024 8.04341C72.1105 8.04341 70.5882 8.42969 69.2336 9.20135C67.8781 9.9739 66.8127 11.0803 66.0363 12.5207C65.26 13.9619 64.8727 15.6277 64.8727 17.5165C64.8727 19.407 65.2609 21.0667 66.0363 22.4954C66.8127 23.9251 67.8781 25.0253 69.2336 25.797C70.589 26.5695 72.1114 26.9558 73.8024 26.9558C76.1644 26.9558 78.1106 26.2525 79.6391 24.8468C81.1677 23.4411 82.0592 21.5391 82.3144 19.1424H72.6566V16.5841H85.6856V19.003C85.5 20.9859 84.8745 22.8009 83.8091 24.4481C82.7436 26.0962 81.3426 27.3989 79.6052 28.3553C77.8679 29.3125 75.9333 29.7903 73.8033 29.7903C71.5563 29.7903 69.5066 29.2664 67.6533 28.2176C65.7999 27.1689 64.3355 25.7108 63.2585 23.8443C62.1814 21.9777 61.6425 19.8679 61.6425 17.5174C61.6425 15.1669 62.1814 13.0517 63.2585 11.1727C64.3355 9.29459 65.8008 7.83119 67.6533 6.78158C69.5066 5.73287 71.5563 5.20895 73.8033 5.20895C76.3741 5.20895 78.6504 5.84298 80.6305 7.11103C82.6106 8.37907 84.0527 10.1648 84.9566 12.47H81.1686V12.4692Z" fill="white"/>
<path d="M93.573 5.48422V29.5834H90.4114V5.48422H93.573Z" fill="white"/>
<path d="M118.554 29.5833H115.393L102.677 10.3939V29.5833H99.5151V5.44958H102.677L115.393 24.6044V5.44958H118.554V29.5833Z" fill="white"/>
<path d="M142.84 12.4692C142.168 11.0635 141.194 9.9739 139.921 9.20135C138.647 8.42969 137.164 8.04341 135.474 8.04341C133.784 8.04341 132.259 8.42969 130.905 9.20135C129.549 9.9739 128.484 11.0803 127.709 12.5207C126.932 13.9619 126.544 15.6277 126.544 17.5165C126.544 19.407 126.932 21.0667 127.709 22.4954C128.484 23.9251 129.549 25.0253 130.905 25.797C132.26 26.5695 133.784 26.9558 135.474 26.9558C137.837 26.9558 139.782 26.2525 141.311 24.8468C142.84 23.4411 143.731 21.5391 143.987 19.1424H134.328V16.5841H147.357V19.003C147.171 20.9859 146.546 22.8009 145.48 24.4481C144.415 26.0962 143.013 27.3989 141.277 28.3553C139.539 29.3125 137.605 29.7903 135.474 29.7903C133.227 29.7903 131.177 29.2664 129.324 28.2176C127.47 27.1689 126.005 25.7108 124.928 23.8443C123.851 21.9777 123.312 19.8679 123.312 17.5174C123.312 15.1669 123.851 13.0517 124.928 11.1727C126.005 9.29459 127.47 7.83119 129.324 6.78158C131.176 5.73287 133.227 5.20895 135.474 5.20895C138.045 5.20895 140.321 5.84298 142.301 7.11103C144.282 8.37907 145.723 10.1648 146.627 12.47H142.84V12.4692Z" fill="white"/>
<path d="M155.243 8.0434V16.0992H164.07V18.6922H155.243V26.9904H165.112V29.5833H152.082V5.44958H165.112V8.04251L155.243 8.0434Z" fill="white"/>
<path d="M183.212 29.5834L177.444 19.7293H173.622V29.5834H170.461V5.48422H178.278C180.108 5.48422 181.654 5.79502 182.917 6.4175C184.178 7.03998 185.123 7.88091 185.748 8.94116C186.374 10.0014 186.687 11.2118 186.687 12.5713C186.687 14.2309 186.206 15.6952 185.245 16.9624C184.284 18.2304 182.842 19.0713 180.919 19.486L186.999 29.5825L183.212 29.5834ZM173.622 17.2048H178.278C179.992 17.2048 181.277 16.7848 182.135 15.943C182.992 15.102 183.42 13.9778 183.42 12.5722C183.42 11.1434 182.997 10.0369 182.152 9.25285C181.306 8.46964 180.015 8.07715 178.277 8.07715H173.621V17.2048H173.622Z" fill="white"/>
<path d="M67.9861 34.6635V35.6075H65.5509V43.5532H64.3846V35.6075H61.9369V34.6635H67.9861Z" fill="white"/>
<path d="M73.4713 35.6075V38.5787H76.7256V39.535H73.4704V42.5959H77.1102V43.5523H72.3041V34.6502H77.1102V35.6075H73.4713Z" fill="white"/>
<path d="M81.9164 36.7619C82.309 36.0692 82.8453 35.5267 83.5244 35.1351C84.2034 34.7435 84.9575 34.5481 85.7864 34.5481C86.7609 34.5481 87.6104 34.7825 88.3368 35.2496C89.0622 35.7176 89.5923 36.38 89.926 37.2396H88.5295C88.2814 36.7032 87.9245 36.2912 87.4596 36.0017C86.9938 35.7131 86.4361 35.5684 85.7864 35.5684C85.1627 35.5684 84.6032 35.7131 84.108 36.0017C83.6118 36.2912 83.2237 36.7015 82.9417 37.2325C82.6597 37.7644 82.5187 38.3869 82.5187 39.1008C82.5187 39.8068 82.6597 40.4248 82.9417 40.9567C83.2237 41.4886 83.6118 41.8989 84.108 42.1875C84.6032 42.477 85.1636 42.6208 85.7864 42.6208C86.4361 42.6208 86.9938 42.4787 87.4596 42.1946C87.9245 41.9095 88.2814 41.4993 88.5295 40.9629H89.926C89.5923 41.8136 89.0631 42.4698 88.3368 42.9343C87.6104 43.3969 86.76 43.6287 85.7864 43.6287C84.9575 43.6287 84.2034 43.4351 83.5244 43.0488C82.8453 42.6625 82.309 42.1244 81.9164 41.4362C81.5237 40.7471 81.3265 39.9693 81.3265 39.1017C81.3265 38.2341 81.5237 37.4545 81.9164 36.7619Z" fill="white"/>
<path d="M101.423 34.6635V43.5532H100.257V39.5226H95.7066V43.5532H94.5403V34.6635H95.7066V38.5663H100.257V34.6635H101.423Z" fill="white"/>
<path d="M113.316 43.5532H112.15L107.459 36.475V43.5532H106.292V34.6502H107.459L112.15 41.7159V34.6502H113.316V43.5532Z" fill="white"/>
<path d="M119.967 43.0621C119.283 42.675 118.743 42.1351 118.346 41.4425C117.949 40.7498 117.75 39.9693 117.75 39.1017C117.75 38.2342 117.949 37.4545 118.346 36.7619C118.743 36.0692 119.284 35.5284 119.967 35.1422C120.651 34.755 121.407 34.5623 122.236 34.5623C123.073 34.5623 123.833 34.7559 124.517 35.1422C125.201 35.5293 125.739 36.0675 126.133 36.7556C126.526 37.4438 126.722 38.227 126.722 39.1026C126.722 39.9782 126.525 40.7605 126.133 41.4496C125.74 42.1386 125.201 42.6768 124.517 43.063C123.833 43.4502 123.074 43.6429 122.236 43.6429C121.408 43.642 120.651 43.4493 119.967 43.0621ZM123.921 42.2008C124.422 41.9122 124.814 41.4993 125.1 40.9629C125.387 40.4275 125.529 39.8068 125.529 39.1008C125.529 38.3869 125.387 37.7644 125.1 37.2325C124.814 36.7015 124.423 36.2903 123.928 36.0017C123.432 35.7131 122.868 35.5684 122.236 35.5684C121.603 35.5684 121.039 35.7131 120.544 36.0017C120.048 36.2912 119.657 36.7015 119.371 37.2325C119.085 37.7644 118.942 38.3869 118.942 39.1008C118.942 39.8068 119.085 40.4275 119.371 40.9629C119.657 41.4993 120.05 41.9113 120.55 42.2008C121.05 42.4903 121.611 42.6341 122.236 42.6341C122.86 42.6341 123.422 42.4903 123.921 42.2008Z" fill="white"/>
<path d="M132.31 42.6093H135.437V43.5532H131.143V34.6635H132.31V42.6093Z" fill="white"/>
<path d="M141.346 43.0621C140.662 42.675 140.122 42.1351 139.725 41.4425C139.328 40.7498 139.129 39.9693 139.129 39.1017C139.129 38.2342 139.328 37.4545 139.725 36.7619C140.122 36.0692 140.663 35.5284 141.346 35.1422C142.03 34.755 142.785 34.5623 143.614 34.5623C144.451 34.5623 145.212 34.7559 145.896 35.1422C146.58 35.5293 147.118 36.0675 147.511 36.7556C147.905 37.4438 148.101 38.227 148.101 39.1026C148.101 39.9782 147.904 40.7605 147.511 41.4496C147.119 42.1386 146.58 42.6768 145.896 43.063C145.212 43.4502 144.452 43.6429 143.614 43.6429C142.785 43.642 142.029 43.4493 141.346 43.0621ZM145.299 42.2008C145.8 41.9122 146.192 41.4993 146.478 40.9629C146.764 40.4275 146.907 39.8068 146.907 39.1008C146.907 38.3869 146.764 37.7644 146.478 37.2325C146.192 36.7015 145.801 36.2903 145.305 36.0017C144.81 35.7131 144.246 35.5684 143.614 35.5684C142.981 35.5684 142.417 35.7131 141.922 36.0017C141.426 36.2912 141.035 36.7015 140.749 37.2325C140.463 37.7644 140.32 38.3869 140.32 39.1008C140.32 39.8068 140.463 40.4275 140.749 40.9629C141.035 41.4993 141.428 41.9113 141.928 42.2008C142.428 42.4903 142.989 42.6341 143.614 42.6341C144.238 42.6341 144.799 42.4903 145.299 42.2008Z" fill="white"/>
<path d="M159.288 37.2405C159.04 36.7219 158.682 36.3196 158.212 36.0355C157.742 35.7504 157.195 35.6084 156.571 35.6084C155.947 35.6084 155.386 35.7504 154.886 36.0355C154.385 36.3205 153.992 36.7281 153.707 37.26C153.42 37.7919 153.278 38.4064 153.278 39.1026C153.278 39.7997 153.42 40.4124 153.707 40.939C153.992 41.4664 154.386 41.8722 154.886 42.1573C155.386 42.4414 155.947 42.5835 156.571 42.5835C157.443 42.5835 158.16 42.3242 158.724 41.8056C159.288 41.2871 159.617 40.5855 159.71 39.7011H156.148V38.7572H160.954V39.6496C160.886 40.3813 160.655 41.0509 160.263 41.6582C159.87 42.2656 159.353 42.7469 158.712 43.0994C158.071 43.452 157.357 43.6287 156.572 43.6287C155.743 43.6287 154.987 43.4351 154.304 43.0488C153.619 42.6617 153.079 42.1244 152.682 41.4362C152.285 40.7472 152.086 39.9693 152.086 39.1017C152.086 38.2342 152.285 37.4545 152.682 36.7619C153.079 36.0692 153.62 35.5284 154.304 35.1422C154.987 34.755 155.743 34.5623 156.572 34.5623C157.521 34.5623 158.36 34.7959 159.09 35.2638C159.82 35.7318 160.353 36.3907 160.686 37.2414L159.288 37.2405Z" fill="white"/>
<path d="M166.543 34.6635V43.5532H165.376V34.6635H166.543Z" fill="white"/>
<path d="M172.579 35.6075V38.5787H175.834V39.535H172.579V42.5959H176.219V43.5523H171.412V34.6502H176.219V35.6075H172.579Z" fill="white"/>
<path d="M182.121 43.3303C181.656 43.1216 181.29 42.8322 181.025 42.4627C180.76 42.0925 180.623 41.6653 180.614 41.1805H181.858C181.901 41.5978 182.073 41.9477 182.378 42.2336C182.681 42.5178 183.123 42.6599 183.704 42.6599C184.259 42.6599 184.697 42.5222 185.017 42.2452C185.338 41.969 185.498 41.6138 185.498 41.1805C185.498 40.8404 185.405 40.5651 185.216 40.3511C185.028 40.1389 184.793 39.9773 184.511 39.8672C184.23 39.7562 183.849 39.6381 183.371 39.5102C182.782 39.3574 182.31 39.2038 181.955 39.0511C181.6 38.8984 181.297 38.6577 181.045 38.33C180.792 38.0024 180.666 37.5628 180.666 37.0096C180.666 36.5248 180.79 36.0959 181.038 35.7211C181.285 35.3473 181.634 35.0578 182.082 34.8536C182.531 34.6493 183.046 34.5472 183.627 34.5472C184.464 34.5472 185.149 34.7559 185.684 35.1724C186.218 35.5897 186.519 36.142 186.588 36.8302H185.305C185.263 36.4901 185.083 36.1909 184.767 35.9316C184.451 35.6723 184.032 35.5426 183.511 35.5426C183.024 35.5426 182.627 35.6687 182.319 35.9192C182.011 36.1705 181.857 36.5212 181.857 36.9714C181.857 37.2946 181.949 37.5584 182.133 37.7626C182.317 37.966 182.544 38.1214 182.813 38.2279C183.082 38.3345 183.46 38.4553 183.947 38.592C184.537 38.7536 185.011 38.9126 185.371 39.0706C185.73 39.2287 186.037 39.4702 186.293 39.797C186.549 40.1247 186.678 40.5687 186.678 41.1299C186.678 41.5632 186.563 41.9708 186.332 42.3544C186.101 42.7371 185.759 43.047 185.306 43.285C184.853 43.5239 184.32 43.642 183.705 43.642C183.114 43.642 182.586 43.5381 182.121 43.3303Z" fill="white"/>
</g>
<rect x="4.5" y="0.5" width="182" height="49" stroke="black" shape-rendering="crispEdges"/>
</g>
<defs>
<filter id="filter0_d_9_390" x="0" y="0" width="191" height="58" filterUnits="userSpaceOnUse" color-interpolation-filters="sRGB">
<feFlood flood-opacity="0" result="BackgroundImageFix"/>
<feColorMatrix in="SourceAlpha" type="matrix" values="0 0 0 0 0 0 0 0 0 0 0 0 0 0 0 0 0 0 127 0" result="hardAlpha"/>
<feOffset dy="4"/>
<feGaussianBlur stdDeviation="2"/>
<feComposite in2="hardAlpha" operator="out"/>
<feColorMatrix type="matrix" values="0 0 0 0 0 0 0 0 0 0 0 0 0 0 0 0 0 0 0.25 0"/>
<feBlend mode="normal" in2="BackgroundImageFix" result="effect1_dropShadow_9_390"/>
<feBlend mode="normal" in="SourceGraphic" in2="effect1_dropShadow_9_390" result="shape"/>
</filter>
<linearGradient id="paint0_linear_9_390" x1="45.5856" y1="19.6723" x2="2.37372" y2="33.9097" gradientUnits="userSpaceOnUse">
<stop stop-color="#187BBB"/>
<stop offset="0.5275" stop-color="#0F5EA5"/>
<stop offset="1" stop-color="#327599"/>
</linearGradient>
<linearGradient id="paint1_linear_9_390" x1="49.9272" y1="23.2356" x2="45.8508" y2="35.5252" gradientUnits="userSpaceOnUse">
<stop stop-color="#4190BE"/>
<stop offset="1" stop-color="#62A9C0"/>
</linearGradient>
<linearGradient id="paint2_linear_9_390" x1="57.3813" y1="25.6433" x2="47.8691" y2="30.8913" gradientUnits="userSpaceOnUse">
<stop stop-color="#4190BE"/>
<stop offset="1" stop-color="#7CC4C4"/>
</linearGradient>
<linearGradient id="paint3_linear_9_390" x1="16.9498" y1="36.385" x2="44.4228" y2="36.385" gradientUnits="userSpaceOnUse">
<stop stop-color="#2A8BC7"/>
<stop offset="1" stop-color="#00A8CA"/>
</linearGradient>
<linearGradient id="paint4_linear_9_390" x1="24.0127" y1="20.4562" x2="45.4428" y2="49.0978" gradientUnits="userSpaceOnUse">
<stop stop-color="#0F57A1"/>
<stop offset="1" stop-color="#1579BA"/>
</linearGradient>
<linearGradient id="paint5_linear_9_390" x1="9.81502" y1="33.8897" x2="22.7161" y2="5.71375" gradientUnits="userSpaceOnUse">
<stop offset="0.1868" stop-color="#0086C9"/>
<stop offset="1" stop-color="#004F7F"/>
</linearGradient>
<linearGradient id="paint6_linear_9_390" x1="35.9451" y1="16.6953" x2="49.5782" y2="11.8159" gradientUnits="userSpaceOnUse">
<stop stop-color="#1E736E"/>
<stop offset="1" stop-color="#80C3BE"/>
</linearGradient>
<linearGradient id="paint7_linear_9_390" x1="35.8266" y1="16.3636" x2="49.4588" y2="11.4845" gradientUnits="userSpaceOnUse">
<stop stop-color="#1E736E"/>
<stop offset="1" stop-color="#80C3BE"/>
</linearGradient>
<linearGradient id="paint8_linear_9_390" x1="35.9948" y1="16.8285" x2="49.6251" y2="11.95" gradientUnits="userSpaceOnUse">
<stop stop-color="#1E736E"/>
<stop offset="1" stop-color="#80C3BE"/>
</linearGradient>
<linearGradient id="paint9_linear_9_390" x1="35.9739" y1="16.7734" x2="49.6058" y2="11.8944" gradientUnits="userSpaceOnUse">
<stop stop-color="#1E736E"/>
<stop offset="1" stop-color="#80C3BE"/>
</linearGradient>
<linearGradient id="paint10_linear_9_390" x1="36.966" y1="19.5496" x2="50.603" y2="14.6688" gradientUnits="userSpaceOnUse">
<stop stop-color="#1E736E"/>
<stop offset="1" stop-color="#80C3BE"/>
</linearGradient>
<linearGradient id="paint11_linear_9_390" x1="36.7512" y1="18.9409" x2="50.3808" y2="14.0627" gradientUnits="userSpaceOnUse">
<stop stop-color="#1E736E"/>
<stop offset="1" stop-color="#80C3BE"/>
</linearGradient>
<linearGradient id="paint12_linear_9_390" x1="37.1225" y1="19.9819" x2="50.7531" y2="15.1033" gradientUnits="userSpaceOnUse">
<stop stop-color="#1E736E"/>
<stop offset="1" stop-color="#80C3BE"/>
</linearGradient>
<linearGradient id="paint13_linear_9_390" x1="37.027" y1="19.7179" x2="50.6588" y2="14.8389" gradientUnits="userSpaceOnUse">
<stop stop-color="#1E736E"/>
<stop offset="1" stop-color="#80C3BE"/>
</linearGradient>
<linearGradient id="paint14_linear_9_390" x1="39.555" y1="26.7806" x2="53.1884" y2="21.9011" gradientUnits="userSpaceOnUse">
<stop stop-color="#1E736E"/>
<stop offset="1" stop-color="#80C3BE"/>
</linearGradient>
<linearGradient id="paint15_linear_9_390" x1="39.4504" y1="26.4788" x2="53.0795" y2="21.6008" gradientUnits="userSpaceOnUse">
<stop stop-color="#1E736E"/>
<stop offset="1" stop-color="#80C3BE"/>
</linearGradient>
<linearGradient id="paint16_linear_9_390" x1="39.4134" y1="26.3852" x2="53.0465" y2="21.5057" gradientUnits="userSpaceOnUse">
<stop stop-color="#1E736E"/>
<stop offset="1" stop-color="#80C3BE"/>
</linearGradient>
<linearGradient id="paint17_linear_9_390" x1="39.392" y1="26.3267" x2="53.025" y2="21.4472" gradientUnits="userSpaceOnUse">
<stop stop-color="#1E736E"/>
<stop offset="1" stop-color="#80C3BE"/>
</linearGradient>
<linearGradient id="paint18_linear_9_390" x1="38.6256" y1="24.1816" x2="52.257" y2="19.3028" gradientUnits="userSpaceOnUse">
<stop stop-color="#1E736E"/>
<stop offset="1" stop-color="#80C3BE"/>
</linearGradient>
<linearGradient id="paint19_linear_9_390" x1="38.4356" y1="23.651" x2="52.067" y2="18.7722" gradientUnits="userSpaceOnUse">
<stop stop-color="#1E736E"/>
<stop offset="1" stop-color="#80C3BE"/>
</linearGradient>
<linearGradient id="paint20_linear_9_390" x1="38.3634" y1="23.4472" x2="51.9949" y2="18.5683" gradientUnits="userSpaceOnUse">
<stop stop-color="#1E736E"/>
<stop offset="1" stop-color="#80C3BE"/>
</linearGradient>
<linearGradient id="paint21_linear_9_390" x1="38.2671" y1="23.1701" x2="51.8945" y2="18.2928" gradientUnits="userSpaceOnUse">
<stop stop-color="#1E736E"/>
<stop offset="1" stop-color="#80C3BE"/>
</linearGradient>
<clipPath id="clip0_9_390">
<rect x="4" width="183" height="50" fill="white"/>
</clipPath>
</defs>
</svg>
