<svg width="59" height="58" viewBox="0 0 59 58" fill="none" xmlns="http://www.w3.org/2000/svg">
<g filter="url(#filter0_d_203_28)">
<path d="M43.4113 34.4305C43.0154 34.4492 42.6254 34.3286 42.309 34.0897L34.3598 28.0464L31.2413 28.1873C27.6454 28.3498 24.1322 27.0771 21.4746 24.6493C18.817 22.2215 17.2327 18.8374 17.0702 15.2415C16.9078 11.6455 18.1804 8.13233 20.6082 5.47473C23.036 2.81714 26.4202 1.23284 30.0161 1.07036L40.1849 0.610886C43.4786 0.471487 46.7104 1.53563 49.277 3.60463C51.8435 5.67362 53.5692 8.60601 54.132 11.8543C54.6947 15.1025 54.0559 18.4445 52.335 21.2563C50.614 24.0681 47.9285 26.1573 44.7799 27.134L45.0295 32.6591C45.045 32.9832 44.9672 33.305 44.8053 33.5862C44.6434 33.8674 44.4043 34.0964 44.1162 34.2458C43.8974 34.3577 43.6569 34.4207 43.4113 34.4305ZM30.1692 4.45997C27.4723 4.58183 24.9342 5.77006 23.1134 7.76326C21.2925 9.75646 20.338 12.3914 20.4599 15.0883C20.5817 17.7852 21.7699 20.3233 23.7631 22.1442C25.7563 23.9651 28.3912 24.9195 31.0882 24.7977L34.8168 24.6292C35.2127 24.6105 35.6027 24.7311 35.9191 24.97L41.4761 29.1854L41.3275 25.8974C41.3049 25.4864 41.4325 25.0811 41.6866 24.7572C41.9406 24.4332 42.3038 24.2127 42.7084 24.1368C45.1945 23.6131 47.3949 22.1788 48.8773 20.1155C50.3597 18.0523 51.0169 15.5092 50.7199 12.9861C50.4229 10.4629 49.1931 8.14199 47.2721 6.47935C45.3511 4.81671 42.8778 3.93253 40.3381 4.0005L30.1692 4.45997Z" fill="white"/>
<path d="M37.3314 12.6277L33.9418 12.7808L34.0949 16.1705L37.4845 16.0173L37.3314 12.6277Z" fill="white"/>
<path d="M28.8573 13.0106L25.4677 13.1637L25.6209 16.5533L29.0105 16.4002L28.8573 13.0106Z" fill="white"/>
<path d="M45.8054 12.2448L42.4158 12.398L42.569 15.7876L45.9586 15.6344L45.8054 12.2448Z" fill="white"/>
<path d="M16.907 49.2142C16.6615 49.2266 16.4163 49.1855 16.1883 49.0938C15.8879 48.971 15.6291 48.7646 15.4425 48.4991C15.256 48.2336 15.1494 47.9202 15.1356 47.596L14.8859 42.0709C12.1568 41.4743 9.67827 40.0501 7.78856 37.9927C5.89886 35.9352 4.69006 33.3448 4.32714 30.5749C3.96422 27.805 4.46486 24.9906 5.76074 22.5158C7.05662 20.041 9.0846 18.0263 11.5679 16.7468C11.7677 16.6297 11.9894 16.5547 12.2193 16.5265C12.4491 16.4983 12.6824 16.5175 12.9046 16.5829C13.1267 16.6482 13.3332 16.7584 13.5112 16.9065C13.6892 17.0547 13.835 17.2378 13.9395 17.4444C14.0441 17.6511 14.1053 17.8769 14.1192 18.1081C14.1332 18.3393 14.0997 18.5709 14.0207 18.7886C13.9418 19.0064 13.8191 19.2056 13.6603 19.3742C13.5014 19.5427 13.3097 19.6769 13.097 19.7685C11.138 20.7657 9.55441 22.3703 8.58308 24.3422C7.61176 26.3142 7.30488 28.5476 7.70836 30.7085C8.11184 32.8694 9.20398 34.8416 10.8215 36.3302C12.4389 37.8188 14.4948 38.7438 16.6817 38.9668C17.0915 39.006 17.4731 39.1928 17.7554 39.4925C18.0376 39.7922 18.2013 40.1844 18.2158 40.5958L18.3644 43.8837L23.5186 39.1844C23.8013 38.8938 24.1788 38.7141 24.5826 38.6778L28.3112 38.5093C29.6685 38.4505 31 38.1178 32.2255 37.5313C33.451 36.9448 34.5453 36.1165 35.4425 35.0962C35.7425 34.7584 36.1645 34.5535 36.6155 34.5268C36.8389 34.5135 37.0626 34.5444 37.274 34.6176C37.4854 34.6909 37.6803 34.805 37.8476 34.9536C38.0149 35.1021 38.1513 35.2822 38.249 35.4835C38.3467 35.6847 38.4038 35.9033 38.4171 36.1266C38.4303 36.3499 38.3994 36.5737 38.3262 36.7851C38.253 36.9965 38.1388 37.1914 37.9903 37.3587C36.786 38.7132 35.3227 39.8127 33.6866 40.5925C32.0505 41.3723 30.2749 41.8165 28.4643 41.8989L25.3459 42.0398L17.974 48.7754C17.6805 49.0418 17.303 49.1971 16.907 49.2142Z" fill="white"/>
</g>
<defs>
<filter id="filter0_d_203_28" x="0.212112" y="0.598724" width="58.1191" height="56.6176" filterUnits="userSpaceOnUse" color-interpolation-filters="sRGB">
<feFlood flood-opacity="0" result="BackgroundImageFix"/>
<feColorMatrix in="SourceAlpha" type="matrix" values="0 0 0 0 0 0 0 0 0 0 0 0 0 0 0 0 0 0 127 0" result="hardAlpha"/>
<feOffset dy="4"/>
<feGaussianBlur stdDeviation="2"/>
<feComposite in2="hardAlpha" operator="out"/>
<feColorMatrix type="matrix" values="0 0 0 0 0 0 0 0 0 0 0 0 0 0 0 0 0 0 0.25 0"/>
<feBlend mode="normal" in2="BackgroundImageFix" result="effect1_dropShadow_203_28"/>
<feBlend mode="normal" in="SourceGraphic" in2="effect1_dropShadow_203_28" result="shape"/>
</filter>
</defs>
</svg>
